# xmcd
#
# Track frame offsets:
#	150
#	18820
#	37584
#	55647
#	75690
#	89339
#	106077
#	123440
#	140080
#	159970
#	181148
#	201851
#	220289
#	234212
#	259792
#	276167
#
# Disc length: 3810 seconds
#
# Revision: 1
# Processed by: cddbd v1.5.1PL0 Copyright (c) Steve Scherf et al.
# Submitted via: EasyCDDAExtractor 5.0.6
#
DISCID=c70ee010
DTITLE=Amanda Lear - Follow Me
DYEAR=2002
DGENRE=Blues
TTITLE0=Follow Me
TTITLE1=Queen Of Chinatown
TTITLE2=Peep!
TTITLE3=Blood And Honey
TTITLE4=C'est Si Bon
TTITLE5=Fashion Pack (Studio 54)
TTITLE6=Rien Ne Va Plus
TTITLE7=Tomorrow
TTITLE8=Enigma (Give A Bit Mmh To Me)
TTITLE9=The Sphinx
TTITLE10=This Man (Dali's Song - Remix)
TTITLE11=Fabulous Lover, Love Me
TTITLE12=Muscle Man (Man Piano Version)
TTITLE13=Everytmie You Touch Me
TTITLE14=I'll Miss You
TTITLE15=Alter Ego
EXTD=
EXTT0=
EXTT1=
EXTT2=
EXTT3=
EXTT4=
EXTT5=
EXTT6=
EXTT7=
EXTT8=
EXTT9=
EXTT10=
EXTT11=
EXTT12=
EXTT13=
EXTT14=
EXTT15=
PLAYORDER=
